# xmcd
#
# Track frame offsets:
#	150
#	12967
#	34068
#	53333
#	68809
#	89712
#	109443
#	131447
#	148433
#	167339
#	188543
#	213725
#
# Disc length: 3024 seconds
#
# Revision: 1
# Processed by: cddbd v1.5.2PL0 Copyright (c) Steve Scherf et al.
# Submitted via: audiograbber 1.83.01
#
DISCID=aa0bce0c
DTITLE=Shelley Lynne - Live at The Dave Barter Blues Festival
DYEAR=2008
DGENRE=Blues
TTITLE0=Ka-ching Ka-ching
TTITLE1=Hound Dog
TTITLE2=Start It Up
TTITLE3=Hip Shakin Mama
TTITLE4=Just a little bit, Woke up this Morning
TTITLE5=Love Him With A Feeling
TTITLE6=Smokin In Bed
TTITLE7=Wild Thang (All Night Long)
TTITLE8=Cadillac Blues
TTITLE9=Instant Breakfast
TTITLE10=Salt In My Wounds
TTITLE11=WOMAN
EXTD=This is an impromtu live recording of Canadian Blues artist Shelley Lynne.
EXTD=It was recorded at Canuck Sports Bar and Grill in Old Mazatlan, Mazatlan,
EXTD=Sinaloa, Mexico.
EXTT0=Words and Music by Hahn and Hudson
EXTT1=Words and Music by Jerry Lieber and Mike Stoller
EXTT2=Words and Music by Robben Ford
EXTT3=Words and Music by Irma Thomas
EXTT4=Medley featuring words and music from Van Morrison, B.B. King, and Jules 
EXTT4=Taub
EXTT5=Words and Music by Barbara Carr
EXTT6=Words and Music by Denise LaSalle, John Ward and John Jarrard
EXTT7=Words and Music by Denise LaSalle
EXTT8=Words and Music by Karen Lawrence and Fred Hostetler
EXTT9=Words and Music by Trudy Lynn
EXTT10=Words and Music by A. Mirikitani, D. Walker
EXTT11=Words and Music by Peggy Lee
PLAYORDER=
